<?xml version="1.0" encoding="UTF-8"?>
<svg width="24px" height="24px" viewBox="0 0 24 24" version="1.1" xmlns="http://www.w3.org/2000/svg">
    <title>Ant</title>
    <g stroke="none" stroke-width="1" fill="none" fill-rule="evenodd">
        <path d="M17.5,12 C17.5,12.5523 17.0523,13 16.5,13 C15.9477,13 15.5,12.5523 15.5,12 C15.5,11.4477 15.9477,11 16.5,11 C17.0523,11 17.5,11.4477 17.5,12 Z" fill="#000000" fill-rule="nonzero"></path>
        <path d="M8.5,12 C8.5,12.5523 8.05228,13 7.5,13 C6.94772,13 6.5,12.5523 6.5,12 C6.5,11.4477 6.94772,11 7.5,11 C8.05228,11 8.5,11.4477 8.5,12 Z" fill="#000000" fill-rule="nonzero"></path>
        <path d="M12,18 C8.13401,18 5,14.866 5,11 C5,7.13401 8.13401,4 12,4 C15.866,4 19,7.13401 19,11 C19,14.866 15.866,18 12,18 Z" stroke="#000000" stroke-width="2"></path>
        <path d="M4,16 L7,13" stroke="#000000" stroke-width="2" stroke-linecap="round"></path>
        <path d="M20,16 L17,13" stroke="#000000" stroke-width="2" stroke-linecap="round"></path>
        <path d="M12,18 L12,21" stroke="#000000" stroke-width="2" stroke-linecap="round"></path>
        <path d="M7,7 L4,4" stroke="#000000" stroke-width="2" stroke-linecap="round"></path>
        <path d="M17,7 L20,4" stroke="#000000" stroke-width="2" stroke-linecap="round"></path>
    </g>
</svg>
