<?xml version="1.0" encoding="UTF-8"?>
<svg width="30px" height="30px" viewBox="0 0 30 30" version="1.1" xmlns="http://www.w3.org/2000/svg">
    <title>Better Ant</title>
    <g stroke="none" stroke-width="1" fill="none" fill-rule="evenodd">
        <!-- Body segments -->
        <ellipse fill="#3A2012" cx="15" cy="15" rx="4" ry="5"></ellipse>
        <ellipse fill="#3A2012" cx="9" cy="15" rx="3" ry="3.5"></ellipse>
        <ellipse fill="#3A2012" cx="21" cy="15" rx="3" ry="3.5"></ellipse>
        
        <!-- Head -->
        <circle fill="#3A2012" cx="24" cy="15" r="2.5"></circle>
        
        <!-- Eyes -->
        <circle fill="#FFFFFF" cx="25" cy="14" r="0.8"></circle>
        <circle fill="#FFFFFF" cx="25" cy="16" r="0.8"></circle>
        
        <!-- Antennae -->
        <path d="M25,13 C26,11 28,10 29,9" stroke="#3A2012" stroke-width="0.8" stroke-linecap="round"></path>
        <path d="M25,17 C26,19 28,20 29,21" stroke="#3A2012" stroke-width="0.8" stroke-linecap="round"></path>
        
        <!-- Legs -->
        <path d="M10,12 C8,10 7,9 6,8" stroke="#3A2012" stroke-width="0.8" stroke-linecap="round"></path>
        <path d="M10,18 C8,20 7,21 6,22" stroke="#3A2012" stroke-width="0.8" stroke-linecap="round"></path>
        <path d="M15,11 C15,9 15,8 15,7" stroke="#3A2012" stroke-width="0.8" stroke-linecap="round"></path>
        <path d="M15,19 C15,21 15,22 15,23" stroke="#3A2012" stroke-width="0.8" stroke-linecap="round"></path>
        <path d="M20,12 C22,10 23,9 24,8" stroke="#3A2012" stroke-width="0.8" stroke-linecap="round"></path>
        <path d="M20,18 C22,20 23,21 24,22" stroke="#3A2012" stroke-width="0.8" stroke-linecap="round"></path>
    </g>
</svg>
