<?xml version="1.0" encoding="UTF-8"?>
<svg width="50px" height="50px" viewBox="0 0 50 50" version="1.1" xmlns="http://www.w3.org/2000/svg">
    <title>Lizard</title>
    <g stroke="none" stroke-width="1" fill="none" fill-rule="evenodd">
        <!-- Body -->
        <path d="M10,25 C10,20 15,15 25,15 C35,15 40,20 40,25 C40,30 35,35 25,35 C15,35 10,30 10,25 Z" fill="#006600"></path>
        
        <!-- Head -->
        <path d="M40,25 L45,20 C45,20 48,22 48,25 C48,28 45,30 45,30 L40,25 Z" fill="#006600"></path>
        
        <!-- Tail -->
        <path d="M10,25 C10,25 5,28 3,25 C1,22 5,20 5,20 L10,25 Z" fill="#006600"></path>
        
        <!-- Eye -->
        <circle fill="#FFFF00" cx="43" cy="23" r="1"></circle>
        
        <!-- Legs -->
        <path d="M15,20 L10,15" stroke="#006600" stroke-width="3" stroke-linecap="round"></path>
        <path d="M15,30 L10,35" stroke="#006600" stroke-width="3" stroke-linecap="round"></path>
        <path d="M35,20 L40,15" stroke="#006600" stroke-width="3" stroke-linecap="round"></path>
        <path d="M35,30 L40,35" stroke="#006600" stroke-width="3" stroke-linecap="round"></path>
        
        <!-- Spots -->
        <circle fill="#004400" cx="20" cy="20" r="2"></circle>
        <circle fill="#004400" cx="30" cy="20" r="2"></circle>
        <circle fill="#004400" cx="25" cy="25" r="2"></circle>
        <circle fill="#004400" cx="20" cy="30" r="2"></circle>
        <circle fill="#004400" cx="30" cy="30" r="2"></circle>
    </g>
</svg>
